<?xml version="1.0" ?><svg height="50px" id="Слой_1" style="enable-background:new 0 0 50 50;" version="1.1" viewBox="0 0 50 50" width="50px" xml:space="preserve" xmlns="http://www.w3.org/2000/svg" xmlns:xlink="http://www.w3.org/1999/xlink"><style type="text/css">
	.st0{fill:#fff;}
</style><g><path class="st0" d="M25,49.94468c-13.78356,0-25-11.21459-25-24.99816C0,11.22197,11.21644,0.05533,25,0.05533   s25,11.16664,25,24.89119C50,38.73008,38.78357,49.94468,25,49.94468z M25,4.65845c-11.24594,0-20.39687,9.10114-20.39687,20.28806   c0,11.24594,9.15093,20.39503,20.39687,20.39503s20.39687-9.14909,20.39687-20.39503   C45.39687,13.75959,36.24594,4.65845,25,4.65845z"/><path class="st0" d="M25,28.21076c-1.2725,0-2.30156-1.03091-2.30156-2.30157v-11.5613c0-1.27065,1.02906-2.30156,2.30156-2.30156   s2.30156,1.03091,2.30156,2.30156v11.5613C27.30156,27.17985,26.2725,28.21076,25,28.21076z"/><path class="st0" d="M25,37.95367c-1.2725,0-2.30156-1.03091-2.30156-2.30156v-1.60446c0-1.27065,1.02906-2.30156,2.30156-2.30156   s2.30156,1.03091,2.30156,2.30156v1.60446C27.30156,36.92276,26.2725,37.95367,25,37.95367z"/></g></svg>